# xmcd CD database file
#
# Track frame offsets:
#	150
#	21273
#	45321
#	68694
#	91767
#	115890
#	139263
#	159786
#	180234
#	201057
#	220380
#	241728
#	264951
#	288174
#
# Disc length: 4153 seconds
#
# Revision: 0
# Processed by: cddbd v1.5.2PL0 Copyright (c) Steve Scherf et al.
# Submitted via: CDex 1.51
#
DISCID=b010370e
DTITLE=Eric Bolvin - The Lost Recordings
DYEAR=2008
DGENRE=Jazz
TTITLE0=Hip Pocket
TTITLE1=Rinconada
TTITLE2=Two To One
TTITLE3=Shuflin'
TTITLE4=Patricia
TTITLE5=Want You Around
TTITLE6=Snurfology
TTITLE7=I'm Dreaming (Of You)
TTITLE8=Ten Minute Major
TTITLE9=I Know... I'm Thinking
TTITLE10=Three Thing
TTITLE11=Candlestick Park
TTITLE12=Rhino Jive Jam
TTITLE13=Veca's Fantasy
EXTD=YEAR: 2008
EXTT0=
EXTT1=
EXTT2=
EXTT3=
EXTT4=
EXTT5=
EXTT6=
EXTT7=
EXTT8=
EXTT9=
EXTT10=
EXTT11=
EXTT12=
EXTT13=
PLAYORDER=
